<svg width="17" height="16" viewBox="0 0 17 16" fill="none" xmlns="http://www.w3.org/2000/svg">
<g id="attachment" clip-path="url(#clip0_1163_9462)">
<path id="Vector" d="M12.2516 10.6667H5.19827C3.80494 10.6667 2.56494 9.64667 2.4316 8.26C2.27827 6.67334 3.52494 5.33334 5.08494 5.33334H13.3249C14.1983 5.33334 14.9916 5.96 15.0783 6.82667C15.1783 7.82667 14.3983 8.66667 13.4183 8.66667H6.41827C6.0516 8.66667 5.7516 8.36667 5.7516 8C5.7516 7.63334 6.0516 7.33334 6.41827 7.33334H12.2516C12.5249 7.33334 12.7516 7.10667 12.7516 6.83334C12.7516 6.56 12.5249 6.33334 12.2516 6.33334H6.5116C5.63827 6.33334 4.84494 6.96 4.75827 7.82667C4.65827 8.82667 5.43827 9.66667 6.41827 9.66667H13.3049C14.6983 9.66667 15.9383 8.64667 16.0716 7.26C16.2249 5.66667 14.9783 4.33334 13.4183 4.33334H5.23827C3.32494 4.33334 1.6116 5.73334 1.4316 7.64C1.2316 9.83334 2.93827 11.6667 5.08494 11.6667H12.2516C12.5249 11.6667 12.7516 11.44 12.7516 11.1667C12.7516 10.8933 12.5249 10.6667 12.2516 10.6667Z" fill="#6B7280"/>
</g>
<defs>
<clipPath id="clip0_1163_9462">
<rect width="16" height="16" fill="white" transform="translate(0.75)"/>
</clipPath>
</defs>
</svg>
