<svg width="25" height="24" viewBox="0 0 25 24" fill="none" xmlns="http://www.w3.org/2000/svg">
<g id="dashboard">
<path id="Vector" d="M4.625 13H10.625C11.175 13 11.625 12.55 11.625 12V4C11.625 3.45 11.175 3 10.625 3H4.625C4.075 3 3.625 3.45 3.625 4V12C3.625 12.55 4.075 13 4.625 13ZM4.625 21H10.625C11.175 21 11.625 20.55 11.625 20V16C11.625 15.45 11.175 15 10.625 15H4.625C4.075 15 3.625 15.45 3.625 16V20C3.625 20.55 4.075 21 4.625 21ZM14.625 21H20.625C21.175 21 21.625 20.55 21.625 20V12C21.625 11.45 21.175 11 20.625 11H14.625C14.075 11 13.625 11.45 13.625 12V20C13.625 20.55 14.075 21 14.625 21ZM13.625 4V8C13.625 8.55 14.075 9 14.625 9H20.625C21.175 9 21.625 8.55 21.625 8V4C21.625 3.45 21.175 3 20.625 3H14.625C14.075 3 13.625 3.45 13.625 4Z" fill="#4B21C1"/>
</g>
</svg>
