<svg width="25" height="24" viewBox="0 0 25 24" fill="none" xmlns="http://www.w3.org/2000/svg">
<g id="hourglass_bottom">
<path id="Vector" d="M16.6667 22C17.7667 22 18.6667 21.1 18.6667 20L18.6567 16.82C18.6567 16.29 18.4467 15.79 18.0767 15.41L14.6667 12L18.0767 8.57C18.4467 8.2 18.6567 7.69 18.6567 7.16L18.6667 4C18.6667 2.9 17.7667 2 16.6667 2H8.66666C7.56666 2 6.66666 2.9 6.66666 4V7.16C6.66666 7.69 6.87666 8.2 7.24666 8.58L10.6667 12L7.25666 15.4C6.87666 15.78 6.66666 16.29 6.66666 16.82V20C6.66666 21.1 7.56666 22 8.66666 22H16.6667ZM8.66666 7.09V5C8.66666 4.45 9.11666 4 9.66666 4H15.6667C16.2167 4 16.6667 4.45 16.6667 5V7.09C16.6667 7.36 16.5567 7.61 16.3767 7.8L12.6667 11.5L8.95666 7.79C8.77666 7.61 8.66666 7.35 8.66666 7.09Z" fill="#4B21C1"/>
</g>
</svg>
