<svg width="25" height="24" viewBox="0 0 25 24" fill="none" xmlns="http://www.w3.org/2000/svg">
<g id="cases">
<g id="Vector">
<path d="M3.875 9.5H1.875V20.5C1.875 21.61 2.765 22.5 3.875 22.5H20.875V20.5H3.875V9.5Z" fill="#9CA3AF"/>
<path d="M18.875 5.5V3.5C18.875 2.4 17.975 1.5 16.875 1.5H12.875C11.775 1.5 10.875 2.4 10.875 3.5V5.5H5.875V16.5C5.875 17.6 6.775 18.5 7.875 18.5H21.875C22.975 18.5 23.875 17.6 23.875 16.5V5.5H18.875ZM12.875 3.5H16.875V5.5H12.875V3.5ZM21.875 16.5H7.875V7.5H21.875V16.5Z" fill="#9CA3AF"/>
</g>
</g>
</svg>
