<svg width="25" height="24" viewBox="0 0 25 24" fill="none" xmlns="http://www.w3.org/2000/svg">
<g id="cases">
<path id="Vector" d="M18.875 5.5V3.5C18.875 2.4 17.975 1.5 16.875 1.5H12.875C11.775 1.5 10.875 2.4 10.875 3.5V5.5H7.875C6.775 5.5 5.875 6.4 5.875 7.5V16.5C5.875 17.6 6.775 18.5 7.875 18.5H21.875C22.975 18.5 23.875 17.6 23.875 16.5V7.5C23.875 6.4 22.975 5.5 21.875 5.5H18.875ZM16.875 5.5H12.875V3.5H16.875V5.5ZM2.875 9.5C2.325 9.5 1.875 9.95 1.875 10.5V20.5C1.875 21.6 2.775 22.5 3.875 22.5H18.875C19.425 22.5 19.875 22.05 19.875 21.5C19.875 20.95 19.425 20.5 18.875 20.5H3.875V10.5C3.875 9.95 3.425 9.5 2.875 9.5Z" fill="#4B21C1"/>
</g>
</svg>
