<svg width="25" height="24" viewBox="0 0 25 24" fill="none" xmlns="http://www.w3.org/2000/svg">
<g id="bug_report">
<path id="Vector" d="M19.125 7.79625H17.315C16.865 7.01625 16.245 6.34625 15.495 5.83625L16.425 4.90625C16.815 4.51625 16.815 3.88625 16.425 3.49625C16.035 3.10625 15.405 3.10625 15.015 3.49625L13.545 4.96625C13.085 4.85625 12.615 4.79625 12.125 4.79625C11.635 4.79625 11.165 4.85625 10.715 4.96625L9.235 3.49625C8.845 3.10625 8.215 3.10625 7.825 3.49625C7.435 3.88625 7.435 4.51625 7.825 4.90625L8.745 5.83625C8.005 6.34625 7.385 7.01625 6.935 7.79625H5.125C4.575 7.79625 4.125 8.24625 4.125 8.79625C4.125 9.34625 4.575 9.79625 5.125 9.79625H6.215C6.165 10.1263 6.125 10.4563 6.125 10.7963V11.7963H5.125C4.575 11.7963 4.125 12.2463 4.125 12.7963C4.125 13.3463 4.575 13.7963 5.125 13.7963H6.125V14.7963C6.125 15.1363 6.165 15.4663 6.215 15.7963H5.125C4.575 15.7963 4.125 16.2463 4.125 16.7963C4.125 17.3463 4.575 17.7963 5.125 17.7963H6.935C7.975 19.5863 9.905 20.7963 12.125 20.7963C14.345 20.7963 16.275 19.5863 17.315 17.7963H19.125C19.675 17.7963 20.125 17.3463 20.125 16.7963C20.125 16.2463 19.675 15.7963 19.125 15.7963H18.035C18.085 15.4663 18.125 15.1363 18.125 14.7963V13.7963H19.125C19.675 13.7963 20.125 13.3463 20.125 12.7963C20.125 12.2463 19.675 11.7963 19.125 11.7963H18.125V10.7963C18.125 10.4563 18.085 10.1263 18.035 9.79625H19.125C19.675 9.79625 20.125 9.34625 20.125 8.79625C20.125 8.24625 19.675 7.79625 19.125 7.79625ZM13.125 15.7963H11.125C10.575 15.7963 10.125 15.3463 10.125 14.7963C10.125 14.2463 10.575 13.7963 11.125 13.7963H13.125C13.675 13.7963 14.125 14.2463 14.125 14.7963C14.125 15.3463 13.675 15.7963 13.125 15.7963ZM13.125 11.7963H11.125C10.575 11.7963 10.125 11.3463 10.125 10.7963C10.125 10.2463 10.575 9.79625 11.125 9.79625H13.125C13.675 9.79625 14.125 10.2463 14.125 10.7963C14.125 11.3463 13.675 11.7963 13.125 11.7963Z" fill="#4B21C1"/>
</g>
</svg>
