<svg width="25" height="24" viewBox="0 0 25 24" fill="none" xmlns="http://www.w3.org/2000/svg">
<g id="bug_report">
<path id="Vector" d="M20.125 8H17.315C16.865 7.22 16.245 6.55 15.495 6.04L17.125 4.41L15.715 3L13.545 5.17C13.085 5.06 12.615 5 12.125 5C11.635 5 11.165 5.06 10.715 5.17L8.535 3L7.125 4.41L8.745 6.04C8.005 6.55 7.385 7.22 6.935 8H4.125V10H6.215C6.165 10.33 6.125 10.66 6.125 11V12H4.125V14H6.125V15C6.125 15.34 6.165 15.67 6.215 16H4.125V18H6.935C7.975 19.79 9.905 21 12.125 21C14.345 21 16.275 19.79 17.315 18H20.125V16H18.035C18.085 15.67 18.125 15.34 18.125 15V14H20.125V12H18.125V11C18.125 10.66 18.085 10.33 18.035 10H20.125V8ZM16.125 15C16.125 15.22 16.095 15.47 16.055 15.7L15.955 16.35L15.585 17C14.865 18.24 13.545 19 12.125 19C10.705 19 9.385 18.23 8.665 17L8.295 16.36L8.195 15.71C8.155 15.48 8.125 15.23 8.125 15V11C8.125 10.77 8.155 10.52 8.195 10.3L8.295 9.65L8.665 9C8.965 8.48 9.385 8.03 9.875 7.69L10.445 7.3L11.185 7.12C11.495 7.04 11.815 7 12.125 7C12.445 7 12.755 7.04 13.075 7.12L13.755 7.28L14.365 7.7C14.865 8.04 15.275 8.48 15.575 9.01L15.955 9.66L16.055 10.31C16.095 10.53 16.125 10.78 16.125 11V15ZM10.125 14H14.125V16H10.125V14ZM10.125 10H14.125V12H10.125V10Z" fill="#9CA3AF"/>
</g>
</svg>
