<svg width="25" height="24" viewBox="0 0 25 24" fill="none" xmlns="http://www.w3.org/2000/svg">
<g id="settings">
<path id="Vector" d="M19.8073 12.98C19.8473 12.66 19.8773 12.34 19.8773 12C19.8773 11.66 19.8473 11.34 19.8073 11.02L21.9173 9.37C22.1073 9.22 22.1573 8.95 22.0373 8.73L20.0373 5.27C19.9473 5.11 19.7773 5.02 19.5973 5.02C19.5373 5.02 19.4773 5.03 19.4273 5.05L16.9373 6.05C16.4173 5.65 15.8573 5.32 15.2473 5.07L14.8673 2.42C14.8373 2.18 14.6273 2 14.3773 2H10.3773C10.1273 2 9.91728 2.18 9.88728 2.42L9.50728 5.07C8.89728 5.32 8.33728 5.66 7.81728 6.05L5.32728 5.05C5.26728 5.03 5.20728 5.02 5.14728 5.02C4.97728 5.02 4.80728 5.11 4.71728 5.27L2.71728 8.73C2.58728 8.95 2.64728 9.22 2.83728 9.37L4.94728 11.02C4.90728 11.34 4.87728 11.67 4.87728 12C4.87728 12.33 4.90728 12.66 4.94728 12.98L2.83728 14.63C2.64728 14.78 2.59728 15.05 2.71728 15.27L4.71728 18.73C4.80728 18.89 4.97728 18.98 5.15728 18.98C5.21728 18.98 5.27728 18.97 5.32728 18.95L7.81728 17.95C8.33728 18.35 8.89728 18.68 9.50728 18.93L9.88728 21.58C9.91728 21.82 10.1273 22 10.3773 22H14.3773C14.6273 22 14.8373 21.82 14.8673 21.58L15.2473 18.93C15.8573 18.68 16.4173 18.34 16.9373 17.95L19.4273 18.95C19.4873 18.97 19.5473 18.98 19.6073 18.98C19.7773 18.98 19.9473 18.89 20.0373 18.73L22.0373 15.27C22.1573 15.05 22.1073 14.78 21.9173 14.63L19.8073 12.98ZM17.8273 11.27C17.8673 11.58 17.8773 11.79 17.8773 12C17.8773 12.21 17.8573 12.43 17.8273 12.73L17.6873 13.86L18.5773 14.56L19.6573 15.4L18.9573 16.61L17.6873 16.1L16.6473 15.68L15.7473 16.36C15.3173 16.68 14.9073 16.92 14.4973 17.09L13.4373 17.52L13.2773 18.65L13.0773 20H11.6773L11.3273 17.52L10.2673 17.09C9.83728 16.91 9.43728 16.68 9.03728 16.38L8.12728 15.68L7.06728 16.11L5.79728 16.62L5.09728 15.41L6.17728 14.57L7.06728 13.87L6.92728 12.74C6.89728 12.43 6.87728 12.2 6.87728 12C6.87728 11.8 6.89728 11.57 6.92728 11.27L7.06728 10.14L6.17728 9.44L5.09728 8.6L5.79728 7.39L7.06728 7.9L8.10728 8.32L9.00728 7.64C9.43728 7.32 9.84728 7.08 10.2573 6.91L11.3173 6.48L11.4773 5.35L11.6773 4H13.0673L13.4173 6.48L14.4773 6.91C14.9073 7.09 15.3073 7.32 15.7073 7.62L16.6173 8.32L17.6773 7.89L18.9473 7.38L19.6473 8.59L18.5773 9.44L17.6873 10.14L17.8273 11.27ZM12.3773 8C10.1673 8 8.37728 9.79 8.37728 12C8.37728 14.21 10.1673 16 12.3773 16C14.5873 16 16.3773 14.21 16.3773 12C16.3773 9.79 14.5873 8 12.3773 8ZM12.3773 14C11.2773 14 10.3773 13.1 10.3773 12C10.3773 10.9 11.2773 10 12.3773 10C13.4773 10 14.3773 10.9 14.3773 12C14.3773 13.1 13.4773 14 12.3773 14Z" fill="#9CA3AF"/>
</g>
</svg>
